<?xml version="1.0" encoding="UTF-8"?>
<svg xmlns="http://www.w3.org/2000/svg" xmlns:inkscape="http://www.inkscape.org/namespaces/inkscape" viewBox="0 0 1200 800" width="1200" height="800" color="#17242d">
  <g id="layer-hardpoint" inkscape:groupmode="layer" data-feature-category="hardpoint" data-feature-color="#e63946">
    <g id="layer-hardpoint-01" inkscape:groupmode="layer" data-feature="hardpoint" data-journal-slot="LargeHardpoint1" data-visible="true"><path d="M 586.7799 140.7549 L 586.9809 139.7442 L 587.5172 138.9415 L 588.3199 138.4053 L 589.3306 138.2042 L 610.6692 138.2041 L 611.6799 138.4052 L 612.4825 138.9415 L 613.0188 139.7442 L 613.2198 140.7548 L 613.2198 174.4199 L 613.2198 174.4199 L 613.0187 175.4306 L 612.4825 176.2333 L 611.6798 176.7696 L 610.6691 176.9706 L 599.9998 176.9729 L 589.3305 176.9707 L 588.3198 176.7696 L 587.5172 176.2333 L 586.9809 175.4307 L 586.7799 174.4200 Z" fill="#e63946" fill-opacity="0.72" fill-rule="evenodd" stroke="currentColor" stroke-width="1.2" stroke-linejoin="round"/></g>
    <g id="layer-hardpoint-02" inkscape:groupmode="layer" data-feature="hardpoint" data-journal-slot="MediumHardpoint1" data-visible="true"><path d="M 550.4554 281.5893 L 550.6564 280.5786 L 551.1927 279.7760 L 551.9953 279.2397 L 553.0060 279.0387 L 563.8597 279.0387 L 564.8704 279.2397 L 565.6730 279.7760 L 566.2093 280.5786 L 566.4104 281.5893 L 566.4103 303.4743 L 566.2093 304.4850 L 565.6730 305.2876 L 564.8704 305.8239 L 563.8597 306.0249 L 553.0060 306.0249 L 551.9953 305.8239 L 551.1927 305.2876 L 550.6564 304.4850 L 550.4554 303.4743 L 550.4554 303.4743 Z" fill="#e63946" fill-opacity="0.72" fill-rule="evenodd" stroke="currentColor" stroke-width="1.2" stroke-linejoin="round"/></g>
    <g id="layer-hardpoint-03" inkscape:groupmode="layer" data-feature="hardpoint" data-journal-slot="MediumHardpoint2" data-visible="true"><path d="M 633.5918 281.5893 L 633.7929 280.5786 L 634.3292 279.7760 L 635.1318 279.2397 L 636.1425 279.0387 L 646.9962 279.0387 L 648.0069 279.2397 L 648.8095 279.7760 L 649.3458 280.5786 L 649.5468 281.5893 L 649.5468 303.4743 L 649.5468 303.4743 L 649.3458 304.4850 L 648.8095 305.2876 L 648.0069 305.8239 L 646.9962 306.0249 L 636.1425 306.0249 L 635.1318 305.8239 L 634.3292 305.2876 L 633.7929 304.4850 L 633.5919 303.4743 Z" fill="#e63946" fill-opacity="0.72" fill-rule="evenodd" stroke="currentColor" stroke-width="1.2" stroke-linejoin="round"/></g>
  </g>
  <g id="layer-engine" inkscape:groupmode="layer" data-feature-category="engine" data-feature-color="#7f5539">
    <g id="layer-engine-drive-01" data-feature="engine" data-visible="true"><path d="M 612.6570 748.4879 L 614.1214 742.9947 L 622.1109 735.2963 L 664.9144 738.7165 L 674.9486 739.6418 L 676.6873 744.2313 L 672.8405 747.5585 L 670.7041 748.9414 L 667.4079 750.5980 L 666.1268 751.1526 L 664.9070 751.5792 L 658.7789 753.2357 L 654.4206 753.9939 L 633.2166 756.9397 L 616.0644 758.4183 L 615.6229 757.3737 L 614.0938 753.7520 Z M 614.0938 753.7358 L 676.4696 745.6681 L 672.6383 749.0452 L 668.2564 751.6709 L 663.5052 753.5511 L 658.5518 754.8175 L 654.5682 755.5386 L 653.7938 755.6464 L 633.1021 758.5275 L 616.0644 760.0000 L 614.0938 755.2865 Z M 609.3055 749.5197 L 609.5488 747.4561 L 612.9623 746.9196 L 614.0945 746.8651 L 614.0945 749.5197 Z M 665.7669 742.8019 L 675.0335 738.3324 L 674.9526 739.2860 L 670.4966 741.9467 L 666.1268 743.6726 Z" fill="#7f5539" fill-opacity="0.72" fill-rule="evenodd" stroke="currentColor" stroke-width="1.2" stroke-linejoin="round"/></g>
    <g id="layer-engine-drive-02" data-feature="engine" data-visible="true"><path d="M 585.9059 746.8651 L 587.0381 746.9196 L 590.4516 747.4561 L 590.6948 749.5197 L 585.9059 749.5197 Z M 525.0376 745.7558 L 525.0504 739.6439 L 574.0817 734.9270 L 578.2379 736.6786 L 579.1153 737.1220 L 585.8789 742.9947 L 587.3434 748.4879 L 585.9066 753.7520 L 584.3767 757.3737 L 583.9353 758.4183 L 566.7837 756.9397 L 545.5791 753.9966 L 538.7326 752.6683 L 535.0941 751.5765 L 533.8736 751.1526 L 532.5890 750.6027 L 527.1571 747.5632 Z M 523.5307 745.6681 L 585.9066 753.7358 L 585.9066 755.2865 L 583.9360 760.0000 L 566.8983 758.5275 L 546.2065 755.6464 L 545.4322 755.5386 L 541.4486 754.8175 L 536.4952 753.5511 L 531.7439 751.6709 L 527.3613 749.0452 Z M 524.9662 738.3324 L 534.2334 742.8019 L 533.8736 743.6726 L 529.5038 741.9467 L 525.0477 739.2860 Z" fill="#7f5539" fill-opacity="0.72" fill-rule="evenodd" stroke="currentColor" stroke-width="1.2" stroke-linejoin="round"/></g>
  </g>
  <g id="layer-cargo-hatch" inkscape:groupmode="layer" data-feature-category="cargo_hatch" data-feature-color="#f4a261">
    <g id="layer-cargo-hatch-01" data-feature="cargo_hatch" data-visible="true"><path d="M 613.8003 353.9288 L 586.1994 353.9288 L 586.1993 326.3279 L 613.8003 326.3279 Z" fill="#f4a261" fill-opacity="0.82" stroke="currentColor" stroke-width="1.2" stroke-linejoin="round"/></g>
  </g>
  <g id="layer-landing-gear" inkscape:groupmode="layer" data-feature-category="landing_gear" data-feature-color="#2a9d8f">
    <g id="layer-landing-gear-01" data-feature="landing_gear" data-visible="true"><path d="M 584.4604 235.4263 L 584.4604 220.7914 L 584.4604 220.7914 L 584.8365 218.9005 L 585.8399 217.3988 L 587.3416 216.3954 L 589.2325 216.0193 L 610.7671 216.0193 L 612.6580 216.3954 L 614.1597 217.3988 L 615.1631 218.9005 L 615.5392 220.7914 L 615.5392 235.4263 L 615.5392 235.4263 L 614.3248 235.4263 L 584.9020 235.4263 Z" fill="#2a9d8f" fill-opacity="0.72" fill-rule="evenodd" stroke="currentColor" stroke-width="1.2" stroke-linejoin="round"/></g>
    <g id="layer-landing-gear-02" data-feature="landing_gear" data-visible="true"><path d="M 625.9027 673.4567 L 625.9027 673.4567 L 626.3443 673.4567 L 627.1171 673.4567 L 652.3289 673.4567 L 656.9815 673.4567 L 656.9815 688.0915 L 656.6054 689.9825 L 655.6020 691.4842 L 654.1003 692.4876 L 652.2094 692.8637 L 630.6748 692.8637 L 628.7839 692.4876 L 627.2822 691.4842 L 626.2788 689.9825 L 625.9027 688.0916 Z" fill="#2a9d8f" fill-opacity="0.72" fill-rule="evenodd" stroke="currentColor" stroke-width="1.2" stroke-linejoin="round"/></g>
    <g id="layer-landing-gear-03" data-feature="landing_gear" data-visible="true"><path d="M 543.0181 673.4567 L 543.0181 673.4567 L 543.4598 673.4567 L 544.2326 673.4567 L 569.4444 673.4567 L 574.0970 673.4567 L 574.0970 688.0915 L 574.0970 688.0915 L 573.7208 689.9825 L 572.7174 691.4842 L 571.2158 692.4876 L 569.3248 692.8637 L 547.7903 692.8637 L 545.8993 692.4876 L 544.3977 691.4842 L 543.3943 689.9825 L 543.0181 688.0916 Z" fill="#2a9d8f" fill-opacity="0.72" fill-rule="evenodd" stroke="currentColor" stroke-width="1.2" stroke-linejoin="round"/></g>
    <g id="layer-landing-gear-04" data-feature="landing_gear" data-visible="true"><path d="M 584.4603 235.4264 L 592.5749 234.0245 L 594.2132 234.0245 L 605.7864 234.0245 L 607.4247 234.0245 L 615.5392 235.4264 L 615.5392 259.2147 L 615.5392 277.1178 L 615.1631 279.0088 L 614.1597 280.5105 L 612.6580 281.5139 L 610.7671 281.8900 L 589.2326 281.8900 L 587.3416 281.5139 L 585.8399 280.5105 L 584.8365 279.0088 L 584.4604 277.1178 Z" fill="#2a9d8f" fill-opacity="0.72" fill-rule="evenodd" stroke="currentColor" stroke-width="1.2" stroke-linejoin="round"/><path d="M 594.2132 226.1420 L 594.4892 225.8660 L 605.5104 225.8660 L 605.7864 226.1420 L 605.7864 241.6190 L 605.5104 241.8950 L 594.4892 241.8951 L 594.2132 241.6191 Z" fill="#2a9d8f" fill-opacity="0.72" fill-rule="evenodd" stroke="currentColor" stroke-width="1.2" stroke-linejoin="round"/></g>
    <g id="layer-landing-gear-05" data-feature="landing_gear" data-visible="true"><path d="M 625.9027 631.7652 L 626.2788 629.8742 L 627.2822 628.3725 L 628.7839 627.3691 L 630.6748 626.9930 L 652.2093 626.9930 L 654.1003 627.3691 L 655.6020 628.3725 L 656.6054 629.8742 L 656.9815 631.7652 L 656.9816 673.4566 L 648.8671 674.8585 L 647.2287 674.8585 L 635.6556 674.8585 L 634.0173 674.8585 L 625.9027 673.4566 L 625.9027 649.6683 Z" fill="#2a9d8f" fill-opacity="0.72" fill-rule="evenodd" stroke="currentColor" stroke-width="1.2" stroke-linejoin="round"/><path d="M 635.6555 667.2640 L 635.9315 666.9879 L 646.9527 666.9879 L 647.2287 667.2639 L 647.2288 682.7410 L 646.9528 683.0170 L 635.9316 683.0170 L 635.6556 682.7410 Z" fill="#2a9d8f" fill-opacity="0.72" fill-rule="evenodd" stroke="currentColor" stroke-width="1.2" stroke-linejoin="round"/></g>
    <g id="layer-landing-gear-06" data-feature="landing_gear" data-visible="true"><path d="M 552.7710 667.2640 L 553.0470 666.9879 L 564.0682 666.9879 L 564.3442 667.2639 L 564.3442 682.7410 L 564.0682 683.0170 L 553.0470 683.0170 L 552.7710 682.7410 Z" fill="#2a9d8f" fill-opacity="0.72" fill-rule="evenodd" stroke="currentColor" stroke-width="1.2" stroke-linejoin="round"/><path d="M 543.0182 631.7652 L 543.3943 629.8742 L 544.3977 628.3725 L 545.8993 627.3691 L 547.7903 626.9930 L 569.3248 626.9930 L 571.2158 627.3691 L 572.7174 628.3725 L 573.7209 629.8742 L 574.0970 631.7652 L 574.0971 673.4566 L 574.0971 673.4566 L 565.9825 674.8585 L 564.3442 674.8585 L 552.7711 674.8585 L 551.1327 674.8585 L 543.0182 673.4566 L 543.0182 649.6683 Z" fill="#2a9d8f" fill-opacity="0.72" fill-rule="evenodd" stroke="currentColor" stroke-width="1.2" stroke-linejoin="round"/></g>
  </g>
  <g id="layer-thruster" inkscape:groupmode="layer" data-feature-category="thruster" data-feature-color="#00a6c8">
    <g id="layer-thruster-03" data-feature="thruster" data-visible="true"><circle cx="471.7831" cy="584.7824" r="6" fill="#00a6c8" stroke="currentColor" stroke-width="1.4"/></g>
    <g id="layer-thruster-04" data-feature="thruster" data-visible="true"><circle cx="711.3894" cy="259.0585" r="6" fill="#00a6c8" stroke="currentColor" stroke-width="1.4"/></g>
    <g id="layer-thruster-05" data-feature="thruster" data-visible="true"><circle cx="488.5854" cy="259.0469" r="6" fill="#00a6c8" stroke="currentColor" stroke-width="1.4"/></g>
    <g id="layer-thruster-08" data-feature="thruster" data-visible="true"><circle cx="681.3596" cy="622.9732" r="6" fill="#00a6c8" stroke="currentColor" stroke-width="1.4"/></g>
    <g id="layer-thruster-09" data-feature="thruster" data-visible="true"><circle cx="471.7831" cy="584.7824" r="6" fill="#00a6c8" stroke="currentColor" stroke-width="1.4"/></g>
    <g id="layer-thruster-10" data-feature="thruster" data-visible="true"><circle cx="518.6401" cy="622.9732" r="6" fill="#00a6c8" stroke="currentColor" stroke-width="1.4"/></g>
    <g id="layer-thruster-11" data-feature="thruster" data-visible="true"><circle cx="711.3894" cy="259.0585" r="6" fill="#00a6c8" stroke="currentColor" stroke-width="1.4"/></g>
    <g id="layer-thruster-12" data-feature="thruster" data-visible="true"><circle cx="672.8546" cy="306.7275" r="6" fill="#00a6c8" stroke="currentColor" stroke-width="1.4"/></g>
    <g id="layer-thruster-13" data-feature="thruster" data-visible="true"><circle cx="488.5854" cy="259.0469" r="6" fill="#00a6c8" stroke="currentColor" stroke-width="1.4"/></g>
    <g id="layer-thruster-14" data-feature="thruster" data-visible="true"><circle cx="527.1450" cy="306.7275" r="6" fill="#00a6c8" stroke="currentColor" stroke-width="1.4"/></g>
  </g>
  <g id="layer-utility-mount" inkscape:groupmode="layer" data-feature-category="utility_mount" data-feature-color="#e056a7">
    <g id="layer-utility-mount-01" inkscape:groupmode="layer" data-feature="utility_mount" data-journal-slot="TinyHardpoint1" data-visible="true"><path d="M 598.0567 201.9666 L 601.9429 201.9666 L 603.0359 200.8736 L 603.0359 196.9874 L 601.9429 195.8944 L 598.0567 195.8944 L 596.9637 196.9874 L 596.9637 200.8736 Z" fill="#e056a7" fill-opacity="0.82" stroke="currentColor" stroke-width="1.2" stroke-linejoin="round"/></g>
    <g id="layer-utility-mount-02" inkscape:groupmode="layer" data-feature="utility_mount" data-journal-slot="TinyHardpoint2" data-visible="true"><path d="M 598.0567 690.2422 L 601.9429 690.2422 L 603.0359 689.1492 L 603.0359 685.2630 L 601.9429 684.1700 L 598.0567 684.1700 L 596.9637 685.2630 L 596.9637 689.1492 Z" fill="#e056a7" fill-opacity="0.82" stroke="currentColor" stroke-width="1.2" stroke-linejoin="round"/></g>
  </g>
  <g id="layer-hull" inkscape:groupmode="layer" data-technical-layer="hull" data-endpoint-extension="3" data-junction-gap="3" data-junction-repairs="54">
    <path data-technical-line="structure" data-path-assembly="connected" d="M 459.7748 595.9130 L 460.9002 557.1147 M 460.8214 596.5875 L 465.5329 594.2758 M 460.9902 596.5815 L 465.5329 594.3529 M 461.2722 547.2968 L 498.2851 500.6002 M 465.7172 593.9715 L 465.8065 570.8894 M 466.0555 594.0190 L 504.1657 575.3192 M 466.0555 594.0962 L 504.1657 575.3967 M 466.3018 570.0938 L 503.9437 551.6238 M 476.6868 267.0264 L 479.7361 245.4857 M 476.7035 267.0553 L 479.7567 245.4884 M 477.6727 267.8159 L 482.7291 266.2513 M 481.0816 236.0374 L 513.2299 203.7027 M 482.9427 265.9831 L 483.0101 254.7430 M 483.2695 266.0896 L 513.3530 257.0762 M 483.5396 254.0318 L 513.0803 245.1664 M 502.6184 494.3000 L 507.4750 488.2290 M 504.3500 575.0153 L 504.4390 551.9331 M 508.7451 583.3116 L 508.3418 603.4131 L 508.9534 620.7476 L 510.0343 643.2633 L 511.0913 665.2807 L 512.2406 684.9236 L 514.4448 721.2260 L 515.6302 726.2414 M 508.8324 580.3602 L 509.8183 546.8422 L 510.6856 517.3591 L 511.2232 499.0761 M 511.3403 495.1055 L 511.5130 489.1232 L 512.8075 445.1583 L 513.1293 434.1936 L 514.1258 400.5789 M 513.5659 256.8080 L 513.6096 245.5601 M 513.8928 256.9145 L 519.9903 255.8415 M 514.2317 397.0131 L 514.5436 386.5405 M 514.4359 397.2400 L 531.6617 397.7530 M 514.5055 400.2037 L 531.6672 400.7164 M 514.6783 382.0159 L 514.9902 371.5435 M 514.7605 386.3260 L 531.9868 386.8391 M 514.8820 382.2429 L 532.1082 382.7559 M 514.9453 256.7293 L 519.9864 255.8841 M 515.0907 368.1711 L 515.9049 340.7717 L 516.7545 312.1340 L 517.2424 298.4976 L 517.8381 285.7365 L 519.3831 262.6031 L 520.3736 251.5727 M 515.2072 371.3290 L 532.4328 371.8420 M 515.2971 481.6395 L 515.8165 464.1273 M 515.4472 368.5682 L 532.6084 369.0795 M 515.4639 483.9762 L 516.1218 461.8050 M 515.7879 727.0737 L 518.0308 731.7299 L 521.1605 735.8550 M 516.3850 729.6083 L 517.6230 734.5705 M 517.2763 198.4878 L 523.8656 191.9113 M 517.3127 198.4929 L 523.9020 191.9167 M 517.4373 198.3224 L 524.1355 191.6381 M 518.1824 737.0263 L 520.4286 741.6111 L 523.5307 745.6681 L 527.3613 749.0452 L 531.7439 751.6709 L 536.4952 753.5511 L 541.4486 754.8175 M 520.6081 249.0588 L 521.5665 240.2744 L 524.2443 219.1189 M 521.2474 284.6187 L 522.5677 267.1479 M 521.2619 735.9408 L 525.0477 739.2860 L 529.5038 741.9467 M 522.0821 584.7446 L 522.3722 573.9195 M 522.3470 484.1805 L 523.0043 462.0086 M 527.1571 747.5632 L 532.5890 750.6027 M 528.9196 279.7636 L 530.0084 265.3610 M 529.2672 185.7430 L 533.5673 163.4916 L 538.5382 141.7930 M 529.7921 572.2887 L 529.7921 578.3628 M 530.8464 179.6371 L 533.0939 171.2276 L 535.5563 160.6306 L 538.0554 150.6907 L 540.5383 141.5720 L 543.0385 133.1554 L 545.5871 125.3251 L 548.2207 117.9241 L 550.9736 110.7859 L 553.9242 103.8775 L 557.1508 97.1655 L 560.7396 90.5799 L 564.7772 84.0489 L 569.1902 77.7709 L 573.9051 71.9421 L 578.8477 66.7609 L 583.9450 62.4231 L 589.1579 59.1021 L 594.4483 56.9713 L 599.9998 56.2034 L 605.5517 56.9713 L 610.8421 59.1021 L 616.0550 62.4231 L 621.1523 66.7609 L 626.0949 71.9421 L 630.8098 77.7709 L 635.2228 84.0489 L 639.2604 90.5799 L 642.8492 97.1655 L 646.0758 103.8775 L 649.0264 110.7859 L 651.7793 117.9241 L 654.4129 125.3251 L 656.9615 133.1554 L 659.4617 141.5720 L 661.9446 150.6907 L 664.4437 160.6306 L 666.9061 171.2276 L 669.1529 179.6347 M 530.8899 180.9394 L 533.1026 173.4086 L 535.5573 162.8059 L 538.0480 152.8603 L 540.5232 143.7348 L 543.0156 135.3115 L 545.5592 127.4715 L 548.1820 120.0637 L 550.9247 112.9218 L 553.8723 106.0050 L 557.0959 99.2843 L 560.6823 92.6885 L 564.7166 86.1488 L 569.1258 79.8624 L 573.8384 74.0261 L 578.7824 68.8372 L 583.8871 64.4916 L 589.1135 61.1652 L 594.4220 59.0304 L 599.9998 58.2608 L 605.5780 59.0304 L 610.8865 61.1652 L 616.1126 64.4916 L 621.2176 68.8372 L 626.1616 74.0261 L 630.8742 79.8624 L 635.2834 86.1488 L 639.3177 92.6885 L 642.9041 99.2843 L 646.1277 106.0050 L 649.0753 112.9218 L 651.8180 120.0637 L 654.4408 127.4715 L 656.9844 135.3115 L 659.4765 143.7348 L 661.9520 152.8603 L 664.4427 162.8059 L 666.8974 173.4086 L 669.1094 180.9377 M 531.2560 539.2710 L 536.8738 490.4851 M 531.3987 538.0318 L 532.9037 525.0028 L 536.8738 490.4851 M 532.9672 594.3479 L 532.8691 603.6904 L 533.1107 613.3557 L 534.1226 635.6753 M 533.5743 594.2266 L 583.3638 594.2301 M 533.8736 744.6202 L 533.8736 751.1526 M 533.9025 578.4696 L 580.3451 578.4690 M 533.9288 161.9134 L 538.7785 140.5382 L 543.7825 122.3553 M 534.1579 636.4476 L 535.1358 658.0067 L 537.2194 690.8373 M 534.2334 742.8019 L 537.3284 727.9743 M 534.6748 636.0547 L 542.4411 636.0638 M 536.8738 490.4851 L 537.9777 453.0153 M 536.8738 490.4851 L 537.1063 482.6348 M 537.0426 729.3390 L 538.6908 721.4396 M 537.1289 481.8626 L 537.7689 460.1051 M 538.3279 397.1231 L 538.6232 387.8651 M 538.7326 752.6683 L 545.5791 753.9966 L 566.7837 756.9397 M 538.8043 382.1270 L 539.0996 372.8689 M 541.9343 557.7067 L 562.0409 557.7067 M 543.1922 480.6051 L 556.6896 464.3438 M 543.5314 123.3206 L 548.8804 107.5489 L 554.5721 92.2613 L 558.5373 83.8336 L 562.0284 76.7409 L 570.4103 62.9524 L 579.8912 51.1576 L 589.8433 43.0419 L 594.9086 40.8023 L 599.9998 40.0000 L 605.0911 40.8023 L 610.1567 43.0419 L 620.1084 51.1576 L 629.5897 62.9524 L 637.9716 76.7409 L 641.4627 83.8336 L 645.4279 92.2613 L 651.1196 107.5489 L 656.4686 123.3206 M 543.6476 753.1872 L 566.7466 756.3965 L 576.2235 757.2079 M 543.7810 745.8589 L 565.8308 748.9104 L 582.2714 750.3277 M 543.8599 746.4034 L 565.8658 749.4489 L 576.2073 750.3452 M 546.2065 755.6464 L 566.8983 758.5275 L 583.9360 760.0000 M 546.7812 254.9452 L 547.7152 247.4682 M 547.7903 692.8637 L 569.3248 692.8637 M 547.7904 626.9932 L 569.3250 626.9932 M 550.3920 698.5318 L 568.7353 700.8510 L 583.1724 702.0715 M 550.4530 281.5886 L 550.4530 303.4734 M 550.4554 281.5893 L 550.4554 303.4743 M 551.8216 710.8027 L 567.7548 712.8480 M 552.7710 674.8585 L 552.7710 682.7410 M 552.7711 667.2640 L 552.7711 674.8585 M 553.0060 279.0387 L 563.8597 279.0387 M 553.0060 306.0249 L 563.8597 306.0249 M 553.0081 279.0333 L 563.8527 279.0333 M 553.0081 306.0287 L 563.8527 306.0286 M 553.0470 666.9880 L 564.0682 666.9880 M 553.0470 683.0170 L 564.0682 683.0170 M 553.6789 400.8952 L 554.1756 382.1135 L 554.3493 375.5483 L 554.5226 368.9935 M 554.0094 692.8637 L 563.1060 692.8637 M 555.8157 292.1947 L 561.0501 292.1947 M 556.1157 405.0178 L 569.5546 410.4525 M 561.1976 292.3422 L 561.1976 300.6145 M 562.4273 545.0571 L 562.4273 557.1723 M 562.6101 481.1013 L 564.7635 462.8538 M 562.8074 541.5700 L 575.1264 528.6749 M 562.8138 557.7067 L 574.7778 557.7067 M 564.3442 674.8585 L 564.3442 667.2640 L 564.3442 674.8586 M 564.8543 462.0848 L 568.3208 432.7085 L 570.8402 411.3248 M 566.7837 756.9397 L 583.9353 758.4183 M 566.7837 756.9397 L 583.9353 758.4182 M 567.7548 712.8480 L 585.5992 714.3388 M 567.7548 712.8480 L 581.8182 714.0233 M 568.0962 434.6115 L 577.7676 434.6351 M 568.1593 484.5404 L 569.3828 490.5685 L 571.8635 502.8552 M 568.4485 484.0060 L 599.9998 484.0060 L 631.5513 484.0060 M 570.9310 410.5518 L 573.2754 390.5932 M 572.0262 355.0148 L 572.0264 342.7811 M 572.0264 341.9873 L 572.0269 312.2129 L 572.0273 297.4515 L 572.0274 287.1922 L 572.0286 243.9790 M 572.0286 244.0385 L 576.9598 238.6538 L 583.8830 231.0089 M 574.0970 631.7652 L 574.0970 649.6683 L 574.0971 673.4566 M 574.0970 636.0638 L 585.4536 636.0638 M 574.0970 673.4567 L 574.0970 688.0915 M 574.0971 636.4503 L 574.0971 657.9740 L 574.0971 688.0916 M 575.5063 504.1702 L 575.5066 525.0188 M 575.8931 503.6358 L 599.9998 503.6507 L 624.1067 503.6358 M 580.2912 563.2201 L 580.2912 572.2887 L 580.2912 578.4690 M 583.3571 635.6776 L 583.3601 617.0166 L 583.3638 594.2299 L 585.2504 586.6301 M 583.3571 636.4503 L 583.3537 657.9740 L 583.3951 701.6728 M 583.3641 593.1248 L 583.3658 582.3155 M 583.4763 714.1614 L 583.6408 726.7886 L 583.8794 745.1715 M 583.7395 579.0195 L 585.2015 573.1466 M 583.9346 751.9620 L 583.9355 760.0000 M 583.9346 752.0712 L 599.9998 752.0712 L 616.0656 752.0712 M 583.9347 752.3657 L 599.9998 752.3657 L 616.0656 752.3657 M 583.9347 752.6137 L 598.4168 752.6137 M 583.9348 753.7358 L 599.9998 753.7358 L 616.0654 753.7358 M 584.4605 222.7280 L 584.4605 227.9359 M 584.4605 235.4263 L 584.4605 275.1815 M 585.2214 131.1981 L 589.1327 127.4576 M 585.4505 573.9087 L 585.4512 584.7186 M 585.4512 587.2407 L 585.4529 617.0166 M 585.4529 617.0166 L 585.4535 635.6776 M 585.4529 617.0166 L 585.4545 658.0536 M 585.4535 636.4503 L 585.4541 649.0218 M 585.4698 675.0234 L 585.4916 699.4840 M 585.5173 326.8880 L 585.5173 353.8587 M 585.5173 326.9189 L 599.9998 326.9189 L 614.4824 326.9189 M 585.5173 353.8035 L 599.9998 353.8035 L 614.4824 353.8035 M 585.5843 712.8082 L 585.8789 742.9947 M 585.5916 368.5802 L 599.9998 368.5802 L 614.4081 368.5802 M 585.6183 716.1187 L 585.9052 745.6526 M 586.0373 380.0338 L 599.9998 380.0331 L 613.9625 380.0338 M 586.3851 755.2865 L 599.9998 755.2865 L 614.0938 755.2865 L 616.0644 760.0000 L 633.1021 758.5275 L 653.7938 755.6464 M 586.4392 325.9662 L 599.9998 325.9662 L 613.5605 325.9662 M 586.4392 354.7805 L 599.9998 354.7805 L 613.5605 354.7805 M 586.4944 325.9662 L 586.4944 354.7805 M 586.7799 140.8078 L 586.7799 164.1208 M 586.8989 481.4402 L 599.9998 481.4402 L 613.1009 481.4402 M 586.9276 747.0564 L 596.5971 747.0564 M 587.0839 753.5067 L 598.2611 753.5067 M 587.1486 749.1355 L 592.1620 749.1355 L 599.9998 749.1355 L 607.8383 749.1355 L 612.8517 749.1355 M 589.3305 176.9707 L 599.9998 176.9729 M 589.3352 176.9732 L 599.9998 176.9732 L 610.6648 176.9732 M 589.4912 718.3274 L 589.8216 747.0564 M 589.6624 176.9707 L 599.9998 176.9729 M 591.1129 434.6362 L 599.9998 434.6362 L 608.8869 434.6362 M 591.3283 749.5197 L 599.9998 749.5197 L 608.6720 749.5197 M 594.2132 226.1419 L 594.2132 234.0244 M 594.2132 233.1447 L 594.2132 241.6190 L 594.2132 234.0245 M 594.4892 225.8660 L 605.5104 225.8660 M 594.4892 241.8950 L 605.5104 241.8950 M 596.4200 164.1430 L 596.4200 172.4153 M 596.5974 195.7832 L 596.5974 202.0787 M 596.5974 684.0580 L 596.5974 690.3538 M 597.1296 718.3274 L 597.1296 745.5219 M 599.9998 176.9729 L 610.6691 176.9706 M 599.9998 176.9729 L 610.3373 176.9707 M 601.5829 752.6137 L 616.0655 752.6137 M 601.7393 753.5067 L 612.9164 753.5067 M 602.8708 718.3274 L 602.8708 745.5219 M 603.4023 195.7832 L 603.4023 202.0787 M 603.4023 684.0580 L 603.4023 690.3538 M 603.4025 747.0564 L 613.0728 747.0564 M 605.7864 226.1420 L 605.7864 233.2432 M 605.7864 233.2098 L 605.7864 226.1419 L 605.7864 234.0244 M 605.7864 234.0245 L 605.7864 241.6190 M 608.7809 164.1430 L 608.7809 172.4153 M 610.1787 747.0564 L 610.5091 718.3274 M 610.7671 281.8900 L 589.2326 281.8900 L 599.9998 281.8900 L 610.7673 281.8900 M 610.8673 127.4576 L 614.7786 131.1981 M 613.2198 140.8078 L 613.2198 174.4190 M 613.2199 147.0305 L 613.2199 174.4184 M 613.5053 325.9662 L 613.5053 354.7805 M 614.0945 745.6526 L 614.3817 716.1187 M 614.1214 742.9947 L 614.4157 712.8082 M 614.4008 714.3387 L 632.2452 712.8480 M 614.4824 326.8880 L 614.4824 353.8587 M 614.5084 699.4840 L 614.5302 675.0234 M 614.5455 658.0536 L 614.5471 617.0166 M 614.5459 649.0218 L 614.5465 636.4503 M 614.5464 636.0638 L 625.3253 636.0638 M 614.5465 635.6776 L 614.5471 617.0166 M 614.5471 617.0166 L 614.5488 587.2407 M 614.5488 584.7186 L 614.5491 573.9087 M 614.7496 586.6301 L 616.6362 594.2299 L 616.6399 617.0166 L 616.6429 635.6776 M 614.7985 573.1466 L 616.2605 579.0195 M 615.5392 220.7914 L 615.5392 235.4263 M 615.5392 230.3711 L 623.0400 238.6538 L 627.9710 244.0383 M 615.5392 235.4264 L 615.5392 259.2147 L 615.5392 277.1178 M 615.5393 222.7280 L 615.5393 230.0235 M 615.5393 231.0918 L 615.5393 275.1815 M 616.0643 758.4182 L 633.2166 756.9397 M 616.0644 758.4183 L 633.2166 756.9397 M 616.0650 758.4182 L 616.0657 750.7429 M 616.1210 745.1715 L 616.3595 726.7886 L 616.5078 715.3774 M 616.6049 701.6728 L 616.6463 657.9740 L 616.6429 636.4503 M 616.6342 582.3155 L 616.6359 593.1248 M 616.6362 594.2301 L 666.4253 594.2266 M 616.8276 702.0715 L 631.2647 700.8510 L 649.6077 698.5318 M 617.7290 750.3277 L 634.1696 748.9104 L 656.2193 745.8589 M 618.1818 714.0233 L 632.2452 712.8480 M 619.6549 578.4690 L 666.0975 578.4696 M 619.7088 563.2201 L 619.7088 572.2887 L 619.7088 578.4690 M 622.2322 434.6351 L 631.9035 434.6115 M 623.7762 757.2079 L 633.2537 756.3965 L 654.4981 753.4426 M 623.7923 750.3452 L 634.1345 749.4489 L 656.1404 746.4034 M 624.4932 525.0188 L 624.4935 504.1702 M 624.8734 528.6749 L 637.1926 541.5700 M 625.2222 557.7067 L 637.1862 557.7067 M 625.9029 636.4503 L 625.9029 657.9740 L 625.9029 688.0916 M 626.7244 390.5932 L 629.0687 410.5518 M 627.9710 243.9790 L 627.9724 287.1922 L 627.9726 297.4515 L 627.9729 312.2129 L 627.9733 341.9873 M 627.9733 342.7811 L 627.9736 355.0148 M 628.1363 502.8552 L 630.6170 490.5685 L 631.8406 484.5404 M 629.1596 411.3248 L 631.6789 432.7085 L 635.1456 462.0848 M 630.4451 410.4525 L 643.8841 405.0178 M 630.6749 692.8637 L 652.2094 692.8637 M 630.6750 626.9932 L 652.2096 626.9932 M 632.2452 712.8480 L 648.1784 710.8027 M 633.2166 756.9397 L 654.4206 753.9939 M 633.5918 281.5893 L 633.5919 303.4743 M 635.2362 462.8538 L 637.3897 481.1013 M 635.6556 667.2640 L 635.6556 674.8585 L 635.6556 682.7410 M 635.9315 666.9880 L 646.9528 666.9880 M 635.9316 683.0170 L 646.9528 683.0170 M 636.1425 279.0387 L 646.9962 279.0387 M 636.1425 306.0249 L 646.9962 306.0249 M 636.1471 279.0333 L 646.9917 279.0333 M 636.1471 306.0286 L 646.9917 306.0287 M 636.8937 692.8637 L 645.9906 692.8637 M 637.5727 545.0571 L 637.5727 557.1723 M 637.9591 557.7067 L 658.0657 557.7067 M 638.9522 292.1947 L 644.1866 292.1947 M 643.3102 464.3438 L 656.8075 480.6051 M 644.3341 292.3422 L 644.3341 300.6145 M 645.4771 368.9935 L 645.6504 375.5483 L 645.8241 382.1135 L 646.3208 400.8952 M 647.2287 674.8585 L 647.2287 667.2640 L 647.2287 674.8586 M 649.5468 281.5893 L 649.5468 303.4736 M 649.5469 281.5886 L 649.5469 303.4734 M 652.2846 247.4682 L 653.2186 254.9452 M 656.2175 122.3553 L 661.2215 140.5382 L 666.0712 161.9134 M 656.9814 636.4503 L 656.9814 657.9740 L 656.9814 688.0916 M 657.5589 636.0638 L 665.3252 636.0547 M 658.5518 754.8175 L 663.5052 753.5511 L 668.2564 751.6709 L 672.6383 749.0452 L 676.4696 745.6681 L 679.5711 741.6111 L 681.8180 737.0263 M 658.7789 753.2357 L 664.9070 751.5792 M 660.9002 372.8689 L 661.1955 382.1270 M 661.3088 721.4396 L 662.6773 727.9970 M 661.3766 387.8651 L 661.6719 397.1231 M 661.4618 141.7930 L 666.4327 163.4916 L 670.8435 186.3159 M 662.0221 453.0153 L 663.1260 490.4851 M 662.2310 460.1051 L 662.8710 481.8626 M 662.4374 726.8506 L 665.7669 742.8019 M 662.7806 690.8373 L 664.8642 658.0067 L 665.8421 636.4476 M 662.8936 482.6348 L 663.1260 490.4851 M 663.1260 490.4851 L 668.7490 539.3144 M 663.1260 490.4851 L 667.0962 525.0028 L 668.6089 538.0978 M 665.8774 635.6753 L 666.8893 613.3557 L 667.1309 603.6904 L 667.0328 594.3479 M 666.1268 744.6202 L 666.1268 751.1526 M 667.3914 369.0795 L 684.5526 368.5682 M 667.5669 371.8420 L 684.7927 371.3290 M 667.8915 382.7559 L 685.1178 382.2429 M 668.0129 386.8391 L 685.2393 386.3260 M 668.3326 400.7164 L 685.4943 400.2037 M 668.3381 397.7530 L 685.5639 397.2400 M 669.9914 265.3610 L 671.0802 279.7636 M 670.2079 572.2887 L 670.2079 578.3628 M 670.4966 741.9467 L 674.9526 739.2860 L 678.7384 735.9408 M 672.8405 747.5585 L 676.6873 744.2313 L 679.8211 740.2147 L 682.1172 735.6562 M 675.7556 219.1189 L 678.4334 240.2744 L 679.3918 249.0588 M 675.8645 191.6381 L 682.5627 198.3224 M 676.0980 191.9167 L 682.6873 198.4929 M 676.1344 191.9113 L 682.7237 198.4878 M 676.9955 462.0086 L 677.6528 484.1805 M 677.4320 267.1479 L 678.7524 284.6187 M 677.6274 573.9195 L 677.9179 584.7446 M 678.8398 735.8550 L 681.9696 731.7299 L 684.2124 727.0737 M 679.6263 251.5727 L 680.6167 262.6031 L 682.1617 285.7365 L 682.7574 298.4976 L 683.2453 312.1340 L 684.0949 340.7717 L 684.9091 368.1711 M 680.0096 255.8415 L 686.1071 256.9145 M 680.0134 255.8841 L 685.0545 256.7293 M 683.8781 461.8050 L 684.5359 483.9762 M 684.1832 464.1273 L 684.7027 481.6395 M 684.3701 726.2414 L 685.5556 721.2260 L 687.7594 684.9236 L 688.9087 665.2807 L 689.9657 643.2633 L 691.0466 620.7476 L 691.6582 603.4131 L 691.2545 583.3116 M 685.0097 371.5435 L 685.3215 382.0159 M 685.4563 386.5405 L 685.7681 397.0131 M 685.8741 400.5789 L 686.8704 434.1936 L 687.1923 445.1583 L 688.4868 489.1232 L 688.6595 495.1055 M 686.3903 245.5601 L 686.4339 256.8080 M 686.6468 257.0762 L 716.7303 266.0896 M 686.7701 203.7027 L 718.9184 236.0374 M 686.9196 245.1664 L 716.4602 254.0318 M 688.7766 499.0761 L 689.3144 517.3591 L 690.1817 546.8422 L 691.1676 580.3602 M 692.5248 488.2290 L 697.3814 494.3000 M 695.5610 551.9331 L 695.6500 575.0153 M 695.8343 575.3192 L 733.9445 594.0190 M 695.8343 575.3967 L 733.9445 594.0962 M 696.0560 551.6238 L 733.6982 570.0938 M 701.7148 500.6002 L 738.7278 547.2968 M 716.9897 254.7430 L 717.0571 265.9831 M 717.2707 266.2513 L 722.3271 267.8159 M 720.2433 245.4884 L 723.2963 267.0553 M 720.2639 245.4857 L 723.3130 267.0264 M 734.1935 570.8894 L 734.2828 593.9715 M 734.4671 594.2758 L 739.1786 596.5875 M 734.4671 594.3529 L 739.0098 596.5815 M 739.0998 557.1147 L 740.2252 595.9130 M 599.9998 73.5059 L 606.2391 74.8072 L 611.1436 78.2508 L 615.0771 83.5984 L 616.3259 89.5074 L 615.0950 95.2760 L 611.5524 99.9676 L 606.2556 103.0985 L 599.9998 104.1733 L 593.7444 103.0985 L 588.4476 99.9676 L 584.9050 95.2760 L 583.6741 89.5074 L 584.9229 83.5984 L 588.8564 78.2508 L 593.7609 74.8072 L 599.9998 73.5059 Z M 657.6886 312.2130 L 656.7876 296.8437 L 657.2271 304.6559 L 657.6886 312.2130 Z M 543.2121 296.8437 L 542.3113 312.2130 L 542.7727 304.6559 L 543.2121 296.8437 Z M 594.4892 225.8659 L 605.5104 225.8659 L 594.4892 225.8659 Z M 646.9527 683.0171 L 635.9315 683.0171 L 646.9527 683.0171 Z M 635.6555 682.7411 L 635.6555 674.8586 L 635.6555 682.7411 Z M 564.0682 683.0171 L 553.0470 683.0171 L 564.0682 683.0171 Z M 552.7710 682.7411 L 552.7710 674.8586 L 552.7710 682.7411 Z M 555.6681 300.6145 L 555.6681 292.3422 L 555.6681 300.6145 Z M 561.0501 300.7620 L 555.8157 300.7620 L 561.0501 300.7620 Z M 638.8046 300.6145 L 638.8046 292.3422 L 638.8046 300.6145 Z M 644.1866 300.7620 L 638.9521 300.7620 L 644.1866 300.7620 Z M 603.5797 164.1430 L 603.5797 172.4153 L 603.5797 164.1430 Z M 591.2188 164.1431 L 591.2188 172.4154 L 591.2188 164.1431 Z" fill="none" stroke="currentColor" stroke-width="1.6" stroke-linecap="round" stroke-linejoin="round"/>
    <path data-technical-line="outline" data-path-assembly="connected" d="M 460.8214 596.5875 L 460.1700 596.4491 L 459.7748 595.9130 L 460.9002 557.1147 L 460.9865 554.2062 L 461.1007 550.7141 L 461.2018 548.3019 L 461.2722 547.2968 L 498.2851 500.6002 L 499.5088 498.4098 L 501.2296 496.0947 M 460.9902 596.5815 L 465.5329 594.3529 M 466.0555 594.0962 L 504.1657 575.3967 M 472.3442 581.8128 L 473.7463 582.5194 L 474.6078 583.8331 L 474.6978 585.4026 L 473.9926 586.8064 L 472.6798 587.6686 M 472.3447 581.8130 L 470.8869 581.8967 L 469.5745 582.7590 L 468.8686 584.1627 L 468.9586 585.7315 L 469.8202 587.0452 L 471.2229 587.7518 L 472.6805 587.6681 M 477.6528 267.8130 L 477.0202 267.6033 L 476.6868 267.0264 L 479.7361 245.4857 L 480.1442 242.6041 L 480.8231 237.8269 L 481.0816 236.0374 L 513.2299 203.7027 L 514.8931 200.8859 M 477.6727 267.8159 L 482.7291 266.2513 M 483.2695 266.0896 L 513.3530 257.0762 M 488.1077 262.0337 L 489.6575 261.8850 L 490.9372 260.9731 L 491.5897 259.5433 L 491.4401 257.9789 L 490.5281 256.6987 L 489.1012 256.0475 M 488.1096 262.0346 L 486.6800 261.3821 L 485.7681 260.1019 L 485.6178 258.5375 L 486.2703 257.1077 L 487.5505 256.1958 L 489.1149 256.0462 M 501.4524 495.7960 L 501.8384 495.3053 L 502.6184 494.3000 L 507.4750 488.2290 L 508.0746 487.4860 M 504.6887 575.1399 L 509.0489 573.0010 M 508.8324 580.3602 L 508.7451 583.3116 L 508.3418 603.4131 L 508.9534 620.7476 L 510.0343 643.2633 L 511.0913 665.2807 L 512.2406 684.9236 L 514.4448 721.2260 L 515.6302 726.2414 M 508.9727 486.4636 L 509.4264 486.0060 L 510.3848 484.8092 L 511.6866 483.2264 M 511.5130 489.1232 L 512.8075 445.1583 L 513.1293 434.1936 L 514.1258 400.5789 L 514.5055 400.2037 L 514.1488 399.8065 L 514.2191 397.4545 M 513.8928 256.9145 L 519.9903 255.8415 M 514.2317 397.0131 L 514.5436 386.5405 M 514.5569 386.0991 L 514.6650 382.4573 M 514.6783 382.0159 L 514.9902 371.5435 M 514.7037 722.3213 L 515.1261 724.8895 M 514.9453 256.7293 L 519.9864 255.8841 M 515.0035 371.1021 L 515.0675 368.9435 L 515.4472 368.5682 L 515.0907 368.1711 L 515.9049 340.7717 L 516.7545 312.1340 L 517.2424 298.4976 L 517.8381 285.7365 L 519.3831 262.6031 L 520.3736 251.5727 M 515.0100 200.7673 L 516.6277 199.1381 M 515.0157 200.7676 L 516.6583 199.1425 M 515.1261 724.8895 L 515.7879 727.0737 L 516.8581 729.7485 M 515.1261 724.8895 L 515.2670 725.4785 M 515.3209 725.6827 L 516.0588 728.1540 L 517.0643 730.5323 L 518.2815 732.8068 M 516.3208 728.7735 L 516.3850 729.6083 M 516.4295 729.8220 L 517.0306 732.9261 L 517.6722 734.7855 L 518.7087 737.1267 M 516.8716 198.8925 L 517.2763 198.4878 M 516.9063 198.8976 L 517.3127 198.4929 L 523.9020 191.9167 L 524.3067 191.5114 M 517.1054 733.2179 L 517.8872 735.6549 L 518.8422 737.7050 L 520.1792 740.2147 L 521.5649 742.0215 L 523.3130 744.2307 L 525.0376 745.7558 L 527.1571 747.5632 L 532.5890 750.6027 L 533.8736 751.1526 L 535.0941 751.5765 M 517.3823 731.1266 L 518.1777 734.3717 L 518.9877 736.9131 M 517.4373 198.3224 L 524.1355 191.6381 L 524.5304 191.2442 L 524.9145 190.8651 M 517.7432 735.2058 L 518.1824 737.0263 L 520.4286 741.6111 L 523.5307 745.6681 L 527.3613 749.0452 L 531.7439 751.6709 L 536.4952 753.5511 L 541.4486 754.8175 L 545.4322 755.5386 L 545.8500 755.1140 L 546.2065 755.6464 L 566.8983 758.5275 L 583.9360 760.0000 L 586.5549 753.7358 M 525.4189 190.3806 L 526.7947 189.0068 L 529.1659 186.8605 M 529.0430 187.4109 L 529.7396 184.2906 M 529.2672 185.7430 L 533.5673 163.4916 L 538.5382 141.7930 M 533.9288 161.9134 L 538.7785 140.5382 L 543.7825 122.3553 L 544.6652 119.9776 M 535.0941 751.5765 L 535.6897 751.7552 M 535.0941 751.5765 L 538.7326 752.6683 L 535.0941 751.5765 Z M 543.5314 123.3206 L 548.8804 107.5489 L 554.5721 92.2613 L 558.5373 83.8336 L 562.0284 76.7409 L 570.4103 62.9524 L 579.8912 51.1576 L 589.8433 43.0419 L 594.9086 40.8023 L 599.9998 40.0000 L 605.0911 40.8023 L 610.1567 43.0419 L 620.1084 51.1576 L 629.5897 62.9524 L 637.9716 76.7409 L 641.4627 83.8336 L 645.4279 92.2613 L 651.1196 107.5489 L 656.4686 123.3206 M 576.9863 759.3994 L 579.0324 758.4358 L 580.5084 758.4223 L 581.9910 758.6919 L 583.9545 759.9558 M 578.6357 758.6226 L 580.5131 758.9648 L 582.3875 758.9471 M 583.9353 758.4183 L 584.3767 757.3737 L 585.9134 753.7358 M 585.1907 755.4468 L 586.3844 755.4307 M 586.3851 755.2865 L 599.9998 755.2865 L 614.0938 755.2865 L 616.0644 760.0000 L 633.1021 758.5275 L 653.7938 755.6464 L 654.1503 755.1140 L 654.5682 755.5386 L 658.5518 754.8175 L 663.5052 753.5511 L 668.2564 751.6709 L 672.6383 749.0452 L 676.4696 745.6681 L 679.5711 741.6111 L 681.8180 737.0263 L 682.2469 735.2486 M 597.4161 41.1665 L 599.9998 40.8690 L 602.5839 41.1665 M 613.5371 755.4307 L 614.1576 755.4391 M 614.0870 753.7358 L 615.6229 757.3737 L 616.0644 758.4183 M 616.0459 759.9558 L 618.0093 758.6919 L 619.4920 758.4223 L 620.9672 758.4358 L 623.0135 759.3994 M 617.6129 758.9471 L 619.4873 758.9648 L 621.3642 758.6227 M 655.3348 119.9776 L 656.2175 122.3553 L 661.2215 140.5382 L 666.0712 161.9134 M 661.4618 141.7930 L 666.4327 163.4916 L 670.8435 186.3159 M 664.9070 751.5792 L 666.1268 751.1526 L 667.4079 750.5980 M 667.4079 750.5980 L 670.7041 748.9414 M 667.4079 750.5980 L 670.7041 748.9414 M 670.2773 184.5642 L 670.8891 187.3961 M 670.7041 748.9414 L 672.8405 747.5585 L 676.6873 744.2313 L 679.8211 740.2147 L 682.1172 735.6562 L 682.9839 732.9322 M 670.7586 186.7921 L 673.2053 189.0068 L 674.5811 190.3806 M 675.0855 190.8651 L 675.4696 191.2442 L 675.8645 191.6381 L 682.5627 198.3224 M 675.6933 191.5114 L 676.0980 191.9167 L 682.6873 198.4929 L 683.0937 198.8976 M 679.6263 251.5727 L 680.6167 262.6031 L 682.1617 285.7365 L 682.7574 298.4976 L 683.2453 312.1340 L 684.0949 340.7717 L 684.9091 368.1711 L 684.5526 368.5682 L 684.9323 368.9435 L 684.9964 371.1021 M 679.9114 739.9337 L 681.2957 737.1287 L 682.3753 734.5698 L 683.1072 732.3452 L 682.9839 732.9322 M 680.0096 255.8415 L 686.1071 256.9145 M 680.0134 255.8841 L 685.0545 256.7293 M 681.0126 736.9131 L 681.8213 734.3717 L 682.6169 731.1287 M 681.7189 732.8068 L 682.9360 730.5323 L 683.9442 728.1553 L 684.7341 725.4785 L 684.8742 724.8895 M 682.6008 733.8844 L 682.9839 732.9322 M 682.7237 198.4878 L 683.1284 198.8925 M 683.1416 729.7485 L 684.2124 727.0737 L 684.8742 724.8895 M 683.1530 732.1288 L 683.6133 729.6070 L 683.6768 728.7858 M 683.3413 199.1425 L 684.9843 200.7676 M 683.3723 199.1381 L 684.9897 200.7673 M 684.3701 726.2414 L 685.5556 721.2260 L 687.7594 684.9236 L 688.9087 665.2807 L 689.9657 643.2633 L 691.0466 620.7476 L 691.6582 603.4131 L 691.2545 583.3116 L 691.1676 580.3602 M 684.8742 724.8895 L 685.2987 722.3129 M 685.0097 371.5435 L 685.3215 382.0159 M 685.1069 200.8859 L 686.7701 203.7027 L 718.9184 236.0374 L 719.1769 237.8269 L 719.8558 242.6041 L 720.2639 245.4857 L 723.3130 267.0264 L 722.9796 267.6033 L 722.3470 267.8130 M 685.3348 382.4573 L 685.4430 386.0991 M 685.4563 386.5405 L 685.7681 397.0131 M 685.7807 397.4545 L 685.8508 399.8065 L 685.4943 400.2037 L 685.8741 400.5789 L 686.8704 434.1936 L 687.1923 445.1583 L 688.4868 489.1232 M 686.6468 257.0762 L 716.7303 266.0896 M 688.3132 483.2264 L 689.6151 484.8092 L 690.5735 486.0060 L 691.0272 486.4636 M 690.9511 573.0010 L 695.3113 575.1399 M 691.9253 487.4860 L 692.5248 488.2290 L 697.3814 494.3000 L 698.1614 495.3053 L 698.5474 495.7960 M 695.8343 575.3967 L 733.9445 594.0962 M 698.7703 496.0947 L 700.4910 498.4098 L 701.7148 500.6002 L 738.7278 547.2968 L 738.7982 548.3019 L 738.8993 550.7141 L 739.0135 554.2062 L 739.0998 557.1147 L 740.2252 595.9130 L 739.8300 596.4491 L 739.1786 596.5875 M 710.8850 256.0462 L 712.4493 256.1958 L 713.7295 257.1077 L 714.3820 258.5375 L 714.2317 260.1019 L 713.3198 261.3821 L 711.8902 262.0346 M 710.8986 256.0475 L 709.4717 256.6987 L 708.5598 257.9789 L 708.4102 259.5433 L 709.0626 260.9731 L 710.3423 261.8850 L 711.8922 262.0337 M 717.2707 266.2513 L 722.3271 267.8159 M 727.3195 587.6681 L 728.7771 587.7518 L 730.1798 587.0452 L 731.0414 585.7315 L 731.1314 584.1627 L 730.4255 582.7590 L 729.1131 581.8967 L 727.6553 581.8130 M 727.3202 587.6686 L 726.0074 586.8064 L 725.3022 585.4026 L 725.3922 583.8331 L 726.2537 582.5194 L 727.6558 581.8128 M 734.4671 594.3529 L 739.0098 596.5815" fill="none" stroke="currentColor" stroke-width="3.2" stroke-linecap="round" stroke-linejoin="round"/>
  </g>
</svg>
